<svg fill="none" height="155" viewBox="0 0 878 155" width="100" xmlns="http://www.w3.org/2000/svg"><path d="M180.693 58.2868C180.693 63.528 179.82 68.7691 178.728 73.7919L162.131 151.318H132.868L148.373 78.3779C149.028 75.3206 149.465 71.8265 149.465 68.7691C149.465 61.7809 145.534 57.85 140.074 57.85C130.684 57.85 118.891 70.0794 112.558 80.9985C110.593 84.2743 109.719 87.3316 109.282 89.7338L96.1795 151.318H66.9163L82.4214 78.3779C83.0765 75.3206 83.5133 71.8265 83.5133 68.7691C83.5133 61.7809 79.5824 57.85 74.1229 57.85C64.7324 57.85 52.9398 70.0794 46.6067 80.9985C44.6413 84.2743 43.7677 87.3316 43.331 89.7338L30.2281 151.318H0.964844L25.4236 35.1383H52.7214L47.6986 58.2868C58.181 45.1839 72.1574 31.8625 89.4096 31.8625C103.823 31.8625 113.213 41.0346 114.305 55.2294C114.305 55.8846 114.524 56.3214 114.524 56.9765H114.742C125.006 44.3103 138.546 31.8625 155.361 31.8625C170.648 31.8625 180.693 42.3449 180.693 58.2868Z" fill="#0A0082"></path><path d="M312.82 35.1383L294.257 123.583C293.602 126.859 292.51 132.1 297.751 132.1C299.062 132.1 300.809 131.663 301.682 131.226L299.935 150.444C296.223 151.754 289.453 153.065 282.901 153.065C268.488 153.065 262.373 145.203 265.431 131.226L266.086 128.169C255.822 140.835 242.501 154.593 226.34 154.593C203.847 154.593 195.985 132.755 195.985 113.537C195.985 75.7574 217.387 31.8625 259.753 31.8625C269.143 31.8625 277.66 34.2648 282.683 41.9081L284.43 35.1383H312.82ZM276.131 69.861C278.752 57.85 270.017 52.6089 259.534 52.6089C233.547 52.6089 226.559 88.2051 226.559 107.641C226.559 121.618 230.926 128.606 238.57 128.606C249.27 128.606 261.281 113.974 266.523 105.457C268.051 102.837 269.798 99.7794 270.454 96.7221L276.131 69.861Z" fill="#0A0082"></path><path d="M478.715 154.593H437.441L406.649 102.181C401.627 93.6646 396.822 93.0094 393.328 93.0094H383.282V154.593H349.215V0.415401H399.224C433.947 0.415401 465.613 8.27716 465.613 44.747C465.613 70.5161 445.521 82.0903 431.982 84.2741C438.315 95.4116 464.521 134.502 478.715 154.593ZM430.235 46.7124C430.235 29.0235 413.419 26.8396 399.88 26.8396H383.282V67.6771H401.845C414.948 67.6771 430.235 63.7462 430.235 46.7124Z" fill="#15AC95"></path><path d="M628.432 154.593H591.962L582.353 125.33H525.355L515.747 154.593H482.116L536.711 0.197021H573.618L628.432 154.593ZM574.055 99.7793L560.952 59.3786C557.676 49.5514 555.055 36.8852 554.4 31.2073H553.963C553.308 36.8852 550.251 49.5514 546.975 59.3786L533.872 99.7793H574.055Z" fill="#15AC95"></path><path d="M744.272 28.1499H696.883V154.593H662.815V28.1499H615.426V0.415401H744.272V28.1499Z" fill="#15AC95"></path><path d="M877.998 48.2411C877.998 93.0094 840.655 100.434 814.231 100.434H798.507V154.593H764.439V0.415401H811.828C847.425 0.415401 877.998 10.0242 877.998 48.2411ZM843.494 50.4249C843.494 29.4602 825.15 26.8396 813.794 26.8396H798.507V74.2286H814.231C826.897 74.2286 843.494 70.2977 843.494 50.4249Z" fill="#15AC95"></path></svg>