<svg version="1.1" id="Logo" xmlns:x="ns_extend;" xmlns:i="ns_ai;" xmlns:graph="ns_graphs;" xmlns="http://www.w3.org/2000/svg" xmlns:xlink="http://www.w3.org/1999/xlink" x="0px" y="0px" viewBox="0 0 168.4 72" style="enable-background:new 0 0 168.4 72;" xml:space="preserve">
 <style type="text/css">
  .st0{fill-rule:evenodd;clip-rule:evenodd;fill:#FE5716;}
	.st1{fill:#10367A;}
 </style>
 <metadata>
  <sfw xmlns="ns_sfw;">
   <slices>
   </slices>
   <sliceSourceBounds bottomLeftOrigin="true" height="72" width="168.3" x="0" y="0">
   </sliceSourceBounds>
  </sfw>
 </metadata>
 <g>
  <path class="st0" d="M34.2,8.6c0.2-1.8-0.1-4.4,1.3-5.6c0.4-1.9,3.4-1.5,2.9-2.7c-0.3-0.8-1.7-0.4-2.2-0.3c-2,0.6-4,1.2-6.1,1.6
		l-2-0.5c-2.6,0.3-4,2.4-5.5,4c-1.2,1.4-2.8,4.7-1.5,6.7c-0.1,0.4-0.1,0.9-0.2,1.3l2.9,4.3c1,0.7,1.1,1.2,2.2,2l0.7,1
		c1.2,0.5,2.6,0.6,3.9,0.2c4.2,0.4,3.7-8.1,5.1-9.9C35.5,9.9,35,9.1,34.2,8.6z M16.2,34.2c1.1-0.2,2.2-0.4,3.2-0.8
		c1.3-0.6,5.6-3.7,4.2-6.2c-0.4-5.2-6.8-0.8-9.4-2.6c-2.7-0.4-5.8-5.5-6.6-7.7c-0.1-0.5-0.3-0.9-0.6-1.3c0-0.1-0.3,0.2-0.3,0.2
		c-0.8,0.9-0.7,1.7-0.8,4l-1.1-0.1c0,0.6-0.2,1.2-0.5,1.7l-0.2,0.4c-0.7-0.2-0.3,0.1-0.6-0.5C1,21.5,1.2,24.1,0,25.5
		C0.1,30.2,9.3,36,16.2,34.2z M47,19.9c-2.9,0.4-5.6,1.4-8.1,3c-0.6,0.4-1.2,0.9-1.6,1.6C37,25,36.9,25.7,37,26.2
		c0.1,0.7,0.4,1.4,1,1.9c5-0.4,13.6-0.7,15.3,3.5c0.1,0.6,0.2,0.9,0.2,1.1c1.7-0.4,0.5-0.3,2.9,0.1c1,0,1.9-0.2,2.8-0.4
		c0.3-0.1,0.5-0.2,0.7-0.5c0-0.2-0.1-0.4-0.1-0.6c0.4,0,0.8,0,1.2-0.2c2.3-0.4,1.1-1.5,2.2-2.7C62.6,20.6,54.6,18.8,47,19.9z
		 M38.1,37c-1.1,0.9-1.6,0.7-2.3,2c-0.1,0,0.1,0.2,0,0.2c0.7,1.4,2.3,1.9,3.4,2.9c0.4,0.3,1.3,2,1.8,2.1c0.5,0.6,0.9,2.3,1.2,2.3
		c0.4,0.5,0,1.6,0.3,2.1c0,2-0.3,2.2-0.6,2.6c0,0.1,0.2,0.5,0.2,0.7s0.9,0.7,1.3,0.6c1.1,0,5.7,3.6,6,4.3c3.3,0.2,3-0.8,5.3-1.7
		c0.6-0.3,1.1,0,1.5-0.4s0.5-1.3,0.8-1.7C57.2,44.8,46.2,37.2,38.1,37L38.1,37z M25.2,38.8c-0.5,0.5-1.7,0.7-2.1,1.2
		c-0.8,1.3-1.7,2.5-2.7,3.7c-3.1,2.9-9.7,4.4-13,1.6c-0.2,0-0.1,0.1,0.2,0.9c0.2,1.5,1.5,5.1,1,6c0.3,1,0.6,0.6,1.2,1.2
		c0.4,0.4,0.5,1.4,1,1.6l1.5-0.1c0.1,0.3,0.2,0.6,0.3,0.8l1.9-0.1c0.4,0.1,1.4,0.6,1.8,0.7l2.1-0.1c1.6,0.4,3-0.2,4.4-1.2
		c0.8-0.5,1.6-0.4,2.3-1c1.2-1.1,2.2-2.3,3-3.6c1.5-2.8,1-9.5-0.4-11.1C27.1,38.7,26.4,38.7,25.2,38.8z">
  </path>
  <g>
   <path class="st1" d="M103.7,20.5c6.7,0,11.3,4.2,11.3,11.9c0,9.6-6.2,12.4-12.8,12.4h-8.8c0-0.5,0-1.9,0-3.7V24.2
			c0-1.8,0-2.9,0-3.7H103.7z M101.7,40.2c3.7,0,6.7-1.2,6.7-7.8c0-5.6-3-7.4-6.7-7.4h-1.9v15.2H101.7z">
   </path>
   <path class="st1" d="M124.5,41c0,1.8,0.1,3.7,0.1,3.7h-6.5c0,0,0-1.9,0-3.7V24.2c0-1.8,0-3.7,0-3.7h15.4v4.7c0,0-3.4-0.1-4.6-0.1
			h-4.4V30h4.4c0.8,0,3.6,0,3.6,0v4.5c0,0-2.5-0.1-3.6-0.1h-4.4V41z">
   </path>
   <path class="st1" d="M80.4,39.9c-2.8,0.2-5.2-2-5.4-4.8c0-0.2,0-0.3,0-0.5v-0.3c0,0,5.7-0.1,7.6-0.1c3.3,0,4.6,0,7.2-0.1v-1.8
			C89.8,24,86.3,20,79.1,20C75.7,20,68,21.2,68,32.8c0,7.7,3.9,12.3,10.7,12.3c5.3,0,8.6-1.4,11-3.1c-0.3-0.4-2.3-4-2.5-4.4
			C85.2,39.1,82.8,39.9,80.4,39.9z M75,29.6c0.1-1.4,0.6-4.7,4.1-4.7s3.8,3.1,3.8,4.7V30c0,0-2.4,0.1-3.9,0.1C77.6,30.1,75,30,75,30
			L75,29.6z">
   </path>
  </g>
  <g>
   <path class="st1" d="M69.2,62.4c0-0.9-0.1-1.7-0.1-2.6H71l0.1,1.9l0,0c0.5-1.4,2-2.3,3.4-2.1v2c-0.2,0-0.5-0.1-0.8-0.1
			c-1.6,0-2.6,1.3-2.6,3.9v6.3h-2V62.4z">
   </path>
   <path class="st1" d="M77.6,66.4c0,2.8,1.1,4.1,3.3,4.1c1-0.1,2-0.4,2.8-1l0.1,1.8c-1.1,0.5-2.2,0.7-3.4,0.7
			c-3.2,0-4.8-2.4-4.8-6.2s1.6-6.2,4.6-6.2c2.7,0,4.2,2.2,4.2,5.7v1.1L77.6,66.4z M82.4,64.9c0-2.5-0.8-3.7-2.3-3.7
			c-1.3,0-2.4,0.9-2.4,3.7H82.4z">
   </path>
   <path class="st1" d="M86.6,62.4c0-0.9-0.1-1.7-0.1-2.6h1.9l0.1,1.8l0,0c0.5-1.2,1.7-2,3-2c2.1,0,3.5,1.2,3.5,3.8v8.3h-2v-7.7
			c0-1.9-0.7-2.7-2-2.7c-1.6,0-2.6,1.1-2.6,3.3v7.2h-2L86.6,62.4z">
   </path>
   <path class="st1" d="M99.4,66.4c0,2.8,1.1,4.1,3.3,4.1c1-0.1,2-0.4,2.8-1l0.1,1.8c-1.1,0.5-2.2,0.7-3.4,0.7
			c-3.2,0-4.8-2.4-4.8-6.2s1.7-6.2,4.6-6.2c2.7,0,4.2,2.2,4.2,5.7v1.1H99.4z M104.2,64.9c0-2.5-0.8-3.7-2.4-3.7
			c-1.3,0-2.4,0.9-2.4,3.7H104.2z">
   </path>
   <path class="st1" d="M119.7,71.8h-2.3l-2.5-10.2h-0.1l-2.3,10.2h-2.2l-3.2-12h2l2.3,10h0.1l2.3-10h2.4l2.4,10h0.1l2.3-10h2
			L119.7,71.8z">
   </path>
   <path class="st1" d="M124.5,60.7c1-0.6,2.2-1,3.4-1c1.2,0,2.3,0.4,3.2,1.1c0.8,0.8,1.1,1.9,1,2.9V70c0,0.6,0,1.2,0.1,1.8h-1.8
			l-0.1-1.6l0,0c-0.7,1.2-2,1.9-3.4,1.8c-1.8,0.1-3.3-1.2-3.5-2.9c0-0.2,0-0.4,0-0.5c0-2.3,1.5-4,5.7-4h1.1V64
			c0.1-0.7-0.1-1.4-0.4-1.9c-0.5-0.5-1.3-0.8-2-0.8c-1.2,0-2.3,0.4-3.1,1.2L124.5,60.7z M130.3,66c-0.5,0-0.9,0-1.4,0
			c-2.3,0-3.4,1.1-3.4,2.5c-0.1,1,0.6,2,1.6,2.1c0.1,0,0.3,0,0.4,0c1.6,0,2.8-1.3,2.8-2.9c0,0,0-0.1,0-0.1L130.3,66z">
   </path>
   <path class="st1" d="M134.8,54.2h2v7.3h0.1c0.6-1.1,1.8-1.9,3-1.8c2.5,0,4.1,2,4.1,6.2s-1.7,6.2-4.1,6.2c-1.3,0-2.6-0.7-3.1-1.9
			l0,0l-0.1,1.8h-2c0-0.7,0.1-1.5,0.1-2.2V54.2z M139.4,70.4c1.8,0,2.6-1.6,2.6-4.6s-0.8-4.6-2.6-4.6s-2.6,1.6-2.6,4.6
			S137.6,70.4,139.4,70.4z">
   </path>
   <path class="st1" d="M146.5,54.2h2v17.7h-2V54.2z">
   </path>
   <path class="st1" d="M153,66.4c0,2.8,1.1,4.1,3.3,4.1c1-0.1,2-0.4,2.8-1l0.1,1.8c-1.1,0.5-2.2,0.7-3.4,0.7c-3.2,0-4.8-2.4-4.8-6.2
			s1.7-6.2,4.6-6.2c2.7,0,4.2,2.2,4.2,5.7v1.1L153,66.4z M157.8,64.9c0-2.5-0.8-3.7-2.4-3.7c-1.3,0-2.4,0.9-2.4,3.7H157.8z">
   </path>
   <path class="st1" d="M161.4,69.5c0.8,0.5,1.8,0.9,2.8,0.9c1.5,0,2.3-0.8,2.3-1.7s-0.4-1.4-1.5-1.9l-1.3-0.6
			c-1.7-0.8-2.4-1.6-2.4-3.1c0-2,1.6-3.5,3.6-3.5c0.1,0,0.2,0,0.3,0c0.9,0,1.7,0.1,2.5,0.4l-0.1,1.7c-0.7-0.3-1.5-0.5-2.4-0.5
			c-1.3,0-2,0.7-2,1.6s0.7,1.5,2,2l0.7,0.3c1.4,0.4,2.3,1.6,2.4,3.1c0,2.1-1.1,3.7-3.9,3.7c-1.1,0-2.2-0.2-3.2-0.7L161.4,69.5z">
   </path>
  </g>
 </g>
</svg>